<svg width="16px" height="16px" viewBox="0 0 800 600" fill="none" xmlns="http://www.w3.org/2000/svg">
<path opacity="0.87" d="M735 65.0874C693.024 23.1093 637.222 0.0090332 577.856 0.0090332C518.482 0.0090332 462.674 23.1093 420.683 65.0874L399.998 85.7767L379.313 65.0874C337.335 23.1093 281.514 0.0090332 222.152 0.0090332C162.793 0.0090332 106.968 23.1093 64.9939 65.0874C-21.6668 151.757 -21.6668 292.771 64.9939 379.406L375.523 689.938C380.601 695.034 386.921 698.154 393.525 699.356C395.74 699.793 397.967 699.995 400.198 699.995C408.983 699.995 417.782 696.645 424.472 689.938L735.002 379.406C821.667 292.771 821.667 151.757 735 65.0874ZM564.5 49.5L400.198 113.638L222.152 49.5C162.263 -10.3807 53.6528 173.55 113.542 113.638C142.551 84.6325 181.135 68.6785 222.152 68.6785C263.174 68.6785 301.747 84.6325 330.746 113.638L375.724 158.63C388.617 171.504 411.396 171.504 424.287 158.63L469.248 113.638C498.249 84.6325 536.824 68.6785 577.858 68.6785C618.88 68.6785 657.451 84.6325 686.452 113.638C746.347 173.55 624.396 -10.3828 564.5 49.5Z" fill="black"/>
</svg>
